<?xml version="1.0" standalone="no"?>
<!DOCTYPE svg PUBLIC "-//W3C//DTD SVG 20010904//EN"
 "http://www.w3.org/TR/2001/REC-SVG-20010904/DTD/svg10.dtd">
<svg version="1.0" xmlns="http://www.w3.org/2000/svg"
 width="250.000000pt" height="250.000000pt" viewBox="0 0 250.000000 250.000000"
 preserveAspectRatio="xMidYMid meet">
<metadata>
Created by potrace 1.14, written by Peter Selinger 2001-2017
</metadata>
<g transform="translate(0.000000,250.000000) scale(0.100000,-0.100000)"
fill="#000000" stroke="none">
<path d="M1118 2495 c-2 -1 -25 -5 -53 -9 -243 -29 -517 -169 -706 -361 -326
-331 -441 -816 -299 -1260 122 -380 421 -678 808 -804 144 -47 241 -61 412
-56 203 5 351 41 524 127 100 50 143 78 231 149 129 104 246 246 327 399 30
58 94 233 104 285 2 11 10 53 17 93 19 96 14 332 -7 432 -82 379 -311 686
-646 867 -95 51 -254 105 -380 128 -36 7 -326 16 -332 10z"/>
</g>
</svg>
